<svg width="24" height="22" viewBox="0 0 24 22" fill="none" xmlns="http://www.w3.org/2000/svg">
<path d="M8.49999 20.3333C9.51251 20.3333 10.3333 19.5125 10.3333 18.5C10.3333 17.4875 9.51251 16.6667 8.49999 16.6667C7.48747 16.6667 6.66666 17.4875 6.66666 18.5C6.66666 19.5125 7.48747 20.3333 8.49999 20.3333Z" stroke="#46496B" stroke-width="2" stroke-linecap="round" stroke-linejoin="round"/>
<path d="M17.6667 20.3333C18.6792 20.3333 19.5 19.5125 19.5 18.5C19.5 17.4875 18.6792 16.6667 17.6667 16.6667C16.6542 16.6667 15.8333 17.4875 15.8333 18.5C15.8333 19.5125 16.6542 20.3333 17.6667 20.3333Z" stroke="#46496B" stroke-width="2" stroke-linecap="round" stroke-linejoin="round"/>
<path d="M1.83334 1.83333H5.16668L7.40001 12.9917C7.47621 13.3753 7.68493 13.72 7.98963 13.9652C8.29433 14.2105 8.67559 14.3408 9.06668 14.3333H17.1667C17.5578 14.3408 17.939 14.2105 18.2437 13.9652C18.5484 13.72 18.7571 13.3753 18.8333 12.9917L20.1667 6H6.00001" stroke="#46496B" stroke-width="2" stroke-linecap="round" stroke-linejoin="round"/>
<circle cx="20.1667" cy="4.33333" r="3.33333" fill="#6850D9"/>
</svg>
